<svg xmlns="http://www.w3.org/2000/svg" viewBox="0 0 48 48"><style><![CDATA[.B{fill:#8bc34a}.C{fill:#76ff03}.D{fill:#b2ff59}.E{fill:#ccff90}.F{fill:#64dd17}]]></style><path fill="#37474f" d="M6 10a4 4 0 0 1 4-4h28a4 4 0 0 1 4 4v28a4 4 0 0 1-4 4H10a4 4 0 0 1-4-4V10z"/><path d="M17 13h2v2h-2z" class="B"/><path d="M17 16h2v2h-2zm0 4h2v2h-2z" class="F"/><path d="M17 24h2v2h-2z" class="C"/><path d="M17 29h2v2h-2z" class="D"/><path d="M17 35h2v2h-2z" class="E"/><path d="M17 10h2v2h-2zm0-2h2v1h-2zm8 0h2v1h-2zM9 15h2v2H9z" class="B"/><path d="M9 18h2v2H9zm0 4h2v2H9z" class="F"/><path d="M9 26h2v2H9z" class="C"/><path d="M9 31h2v2H9z" class="D"/><path d="M9 37h2v2H9z" class="E"/><path d="M9 12h2v2H9zm4-4h2v2h-2zM9 8h2v3H9z" class="B"/><path d="M13 11h2v2h-2z" class="F"/><path d="M13 15h2v2h-2z" class="C"/><path d="M13 19h2v2h-2z" class="D"/><path d="M13 25h2v2h-2z" class="E"/><path d="M21 11h2v2h-2z" class="B"/><path d="M21 14h2v2h-2zm0 4h2v2h-2z" class="F"/><path d="M21 22h2v2h-2z" class="C"/><path d="M21 27h2v2h-2z" class="D"/><path d="M21 33h2v2h-2z" class="E"/><path d="M21 8h2v2h-2zm4 8h2v2h-2z" class="B"/><path d="M25 19h2v2h-2zm0 4h2v2h-2z" class="F"/><path d="M25 27h2v2h-2z" class="C"/><path d="M25 32h2v2h-2z" class="D"/><path d="M25 38h2v2h-2z" class="E"/><path d="M25 13h2v2h-2zm0-3h2v2h-2zm12 5h2v2h-2z" class="B"/><path d="M37 18h2v2h-2zm0 4h2v2h-2z" class="F"/><path d="M37 26h2v2h-2z" class="C"/><path d="M37 31h2v2h-2z" class="D"/><path d="M37 37h2v2h-2z" class="E"/><path d="M37 12h2v2h-2zm0-4h2v3h-2zm-4 4h2v2h-2z" class="B"/><path d="M33 15h2v2h-2zm0 4h2v2h-2z" class="F"/><path d="M33 23h2v2h-2z" class="C"/><path d="M33 28h2v2h-2z" class="D"/><path d="M33 34h2v2h-2z" class="E"/><path d="M33 8h2v3h-2z" class="B"/><path d="M29 11h2v2h-2z" class="C"/><path d="M29 8h2v2h-2z" class="B"/><path d="M29 14h2v2h-2z" class="D"/><path d="M29 19h2v2h-2z" class="E"/></svg>